<svg width="200" height="44" viewBox="0 0 200 44" fill="none" xmlns="http://www.w3.org/2000/svg">
<path d="M65.6832 27.2646H71.5379V30.7317H61.2137V12.2928H65.6832V27.2646Z" fill="#3E2E26"/>
<path d="M80.3087 30.9419C78.8798 30.9419 77.5904 30.6354 76.4403 30.0226C75.3077 29.4097 74.4103 28.5341 73.7482 27.3959C73.1035 26.2577 72.7811 24.9269 72.7811 23.4034C72.7811 21.8975 73.1122 20.5754 73.7743 19.4372C74.4365 18.2815 75.3426 17.3972 76.4926 16.7843C77.6426 16.1714 78.9321 15.865 80.3609 15.865C81.7898 15.865 83.0792 16.1714 84.2293 16.7843C85.3793 17.3972 86.2854 18.2815 86.9476 19.4372C87.6097 20.5754 87.9408 21.8975 87.9408 23.4034C87.9408 24.9094 87.601 26.2402 86.9214 27.3959C86.2593 28.5341 85.3445 29.4097 84.177 30.0226C83.0269 30.6354 81.7375 30.9419 80.3087 30.9419ZM80.3087 27.0545C81.1625 27.0545 81.8856 26.7393 82.4781 26.1089C83.0879 25.4785 83.3929 24.5767 83.3929 23.4034C83.3929 22.2302 83.0966 21.3284 82.5042 20.698C81.9292 20.0676 81.2148 19.7524 80.3609 19.7524C79.4897 19.7524 78.7666 20.0676 78.1915 20.698C77.6165 21.3109 77.329 22.2127 77.329 23.4034C77.329 24.5767 77.6078 25.4785 78.1654 26.1089C78.7404 26.7393 79.4548 27.0545 80.3087 27.0545Z" fill="#3E2E26"/>
<path d="M89.4233 23.4034C89.4233 21.88 89.7282 20.5491 90.3381 19.4109C90.9654 18.2727 91.8279 17.3972 92.9257 16.7843C94.0408 16.1714 95.3129 15.865 96.7417 15.865C98.5713 15.865 100.096 16.3465 101.316 17.3096C102.553 18.2727 103.363 19.6298 103.747 21.3809H98.9895C98.5888 20.2602 97.8133 19.6999 96.6633 19.6999C95.8443 19.6999 95.1909 20.0238 94.703 20.6717C94.2151 21.3021 93.9711 22.2127 93.9711 23.4034C93.9711 24.5942 94.2151 25.5135 94.703 26.1614C95.1909 26.7918 95.8443 27.107 96.6633 27.107C97.8133 27.107 98.5888 26.5466 98.9895 25.4259H103.747C103.363 27.142 102.553 28.4903 101.316 29.471C100.079 30.4516 98.5539 30.9419 96.7417 30.9419C95.3129 30.9419 94.0408 30.6354 92.9257 30.0226C91.8279 29.4097 90.9654 28.5341 90.3381 27.3959C89.7282 26.2577 89.4233 24.9269 89.4233 23.4034Z" fill="#3E2E26"/>
<path d="M105.249 23.3772C105.249 21.8712 105.527 20.5491 106.085 19.4109C106.66 18.2727 107.435 17.3972 108.411 16.7843C109.387 16.1714 110.476 15.865 111.678 15.865C112.706 15.865 113.604 16.0751 114.371 16.4954C115.155 16.9156 115.756 17.4672 116.174 18.1502V16.0751H120.644V30.7317H116.174V28.6567C115.738 29.3396 115.129 29.8912 114.344 30.3115C113.578 30.7317 112.68 30.9419 111.652 30.9419C110.467 30.9419 109.387 30.6354 108.411 30.0226C107.435 29.3922 106.66 28.5079 106.085 27.3696C105.527 26.2139 105.249 24.8831 105.249 23.3772ZM116.174 23.4034C116.174 22.2827 115.86 21.3984 115.233 20.7505C114.623 20.1026 113.874 19.7787 112.985 19.7787C112.097 19.7787 111.339 20.1026 110.711 20.7505C110.101 21.3809 109.797 22.2565 109.797 23.3772C109.797 24.4979 110.101 25.3909 110.711 26.0563C111.339 26.7042 112.097 27.0282 112.985 27.0282C113.874 27.0282 114.623 26.7042 115.233 26.0563C115.86 25.4084 116.174 24.5241 116.174 23.4034Z" fill="#3E2E26"/>
<path d="M128.346 11.2946V30.7317H123.877V11.2946H128.346Z" fill="#3E2E26"/>
<path d="M144.785 12.2928V15.8912H139.923V30.7317H135.454V15.8912H130.592V12.2928H144.785Z" fill="#3E2E26"/>
<path d="M160.776 23.167C160.776 23.5873 160.75 24.0251 160.698 24.4803H150.583C150.652 25.3909 150.94 26.0914 151.445 26.5817C151.968 27.0545 152.604 27.2908 153.353 27.2908C154.468 27.2908 155.244 26.8181 155.679 25.8725H160.436C160.192 26.8356 159.748 27.7024 159.103 28.4728C158.476 29.2433 157.683 29.8474 156.725 30.2852C155.767 30.723 154.695 30.9419 153.51 30.9419C152.081 30.9419 150.809 30.6354 149.694 30.0226C148.579 29.4097 147.708 28.5341 147.08 27.3959C146.453 26.2577 146.139 24.9269 146.139 23.4034C146.139 21.88 146.444 20.5491 147.054 19.4109C147.681 18.2727 148.553 17.3972 149.668 16.7843C150.783 16.1714 152.064 15.865 153.51 15.865C154.921 15.865 156.176 16.1627 157.274 16.758C158.372 17.3534 159.225 18.2027 159.835 19.3059C160.463 20.4091 160.776 21.6961 160.776 23.167ZM156.202 21.985C156.202 21.2146 155.941 20.6017 155.418 20.1464C154.895 19.6911 154.242 19.4635 153.458 19.4635C152.708 19.4635 152.072 19.6824 151.55 20.1201C151.044 20.5579 150.731 21.1795 150.609 21.985H156.202Z" fill="#3E2E26"/>
<path d="M167.604 18.5179C168.126 17.7124 168.78 17.082 169.564 16.6267C170.348 16.1539 171.219 15.9175 172.178 15.9175V20.6717H170.949C169.834 20.6717 168.998 20.9169 168.44 21.4072C167.882 21.88 167.604 22.7205 167.604 23.9288V30.7317H163.134V16.0751H167.604V18.5179Z" fill="#3E2E26"/>
<path d="M178.783 18.5179C179.306 17.7124 179.96 17.082 180.744 16.6267C181.528 16.1539 182.399 15.9175 183.357 15.9175V20.6717H182.129C181.014 20.6717 180.177 20.9169 179.62 21.4072C179.062 21.88 178.783 22.7205 178.783 23.9288V30.7317H174.314V16.0751H178.783V18.5179Z" fill="#3E2E26"/>
<path d="M184.605 23.3772C184.605 21.8712 184.884 20.5491 185.441 19.4109C186.017 18.2727 186.792 17.3972 187.768 16.7843C188.744 16.1714 189.833 15.865 191.035 15.865C192.063 15.865 192.96 16.0751 193.727 16.4954C194.511 16.9156 195.112 17.4672 195.531 18.1502V16.0751H200V30.7317H195.531V28.6567C195.095 29.3396 194.485 29.8912 193.701 30.3115C192.934 30.7317 192.037 30.9419 191.009 30.9419C189.824 30.9419 188.744 30.6354 187.768 30.0226C186.792 29.3922 186.017 28.5079 185.441 27.3696C184.884 26.2139 184.605 24.8831 184.605 23.3772ZM195.531 23.4034C195.531 22.2827 195.217 21.3984 194.59 20.7505C193.98 20.1026 193.23 19.7787 192.342 19.7787C191.453 19.7787 190.695 20.1026 190.068 20.7505C189.458 21.3809 189.153 22.2565 189.153 23.3772C189.153 24.4979 189.458 25.3909 190.068 26.0563C190.695 26.7042 191.453 27.0282 192.342 27.0282C193.23 27.0282 193.98 26.7042 194.59 26.0563C195.217 25.4084 195.531 24.5241 195.531 23.4034Z" fill="#3E2E26"/>
<path d="M37.9057 21.5385C37.9057 30.6813 30.5305 38.0929 21.4326 38.0929C12.3347 38.0929 4.95947 30.6813 4.95947 21.5385C4.95947 12.3957 12.3347 4.98408 21.4326 4.98408C30.5305 4.98408 37.9057 12.3957 37.9057 21.5385Z" fill="#FBA367"/>
<path fill-rule="evenodd" clip-rule="evenodd" d="M21.4326 35.4663C29.0869 35.4663 35.292 29.2306 35.292 21.5385C35.292 13.8464 29.0869 7.61072 21.4326 7.61072C13.7783 7.61072 7.5732 13.8464 7.5732 21.5385C7.5732 29.2306 13.7783 35.4663 21.4326 35.4663ZM21.4326 38.0929C30.5305 38.0929 37.9057 30.6813 37.9057 21.5385C37.9057 12.3957 30.5305 4.98408 21.4326 4.98408C12.3347 4.98408 4.95947 12.3957 4.95947 21.5385C4.95947 30.6813 12.3347 38.0929 21.4326 38.0929Z" fill="#3E2E26"/>
<path fill-rule="evenodd" clip-rule="evenodd" d="M14.8983 6.28801C20.8152 8.7991 24.9677 14.6848 24.9677 21.5451C24.9677 28.4054 20.8152 34.2911 14.8983 36.8022C16.8668 37.6376 19.0307 38.0995 21.3019 38.0995C30.3998 38.0995 37.7751 30.6878 37.7751 21.5451C37.7751 12.4023 30.3998 4.99066 21.3019 4.99066C19.0307 4.99066 16.8668 5.45257 14.8983 6.28801Z" fill="#EF6100"/>
<path fill-rule="evenodd" clip-rule="evenodd" d="M21.4327 35.4663C29.087 35.4663 35.292 29.2306 35.292 21.5385C35.292 13.8464 29.087 7.61072 21.4327 7.61072C13.7783 7.61072 7.57326 13.8464 7.57326 21.5385C7.57326 29.2306 13.7783 35.4663 21.4327 35.4663ZM21.4327 38.0929C30.5305 38.0929 37.9058 30.6813 37.9058 21.5385C37.9058 12.3958 30.5305 4.98408 21.4327 4.98408C12.3348 4.98408 4.95953 12.3958 4.95953 21.5385C4.95953 30.6813 12.3348 38.0929 21.4327 38.0929Z" fill="#3E2E26"/>
<path fill-rule="evenodd" clip-rule="evenodd" d="M39.6425 16.7662C38.9447 14.077 37.6655 11.5753 35.8962 9.43929L37.905 7.75884C39.9201 10.1915 41.3769 13.0406 42.1717 16.1034C42.9665 19.1662 43.0798 22.3674 42.5035 25.4792L39.9339 24.9986C40.4399 22.2663 40.3404 19.4555 39.6425 16.7662Z" fill="#3E2E26"/>
<path fill-rule="evenodd" clip-rule="evenodd" d="M31.0946 37.7675C34.7391 35.5763 37.5389 32.2106 39.0388 28.2176L41.4842 29.1453C39.7759 33.6928 36.5872 37.526 32.4365 40.0215L31.0946 37.7675Z" fill="#3E2E26"/>
<path fill-rule="evenodd" clip-rule="evenodd" d="M4.47711 29.7433C6.56779 34.1066 10.2444 37.4976 14.7492 39.2175C19.2541 40.9374 24.2438 40.855 28.69 38.9875L29.698 41.411C24.6342 43.5379 18.9515 43.6316 13.821 41.6729C8.69049 39.7141 4.50322 35.8521 2.12216 30.8828L4.47711 29.7433Z" fill="#3E2E26"/>
<path fill-rule="evenodd" clip-rule="evenodd" d="M2.64365 20.4726C2.52034 22.6676 2.77885 24.8675 3.40755 26.9733L0.904064 27.7281C0.188041 25.3298 -0.106365 22.8244 0.0340727 20.3245L2.64365 20.4726Z" fill="#3E2E26"/>
<path fill-rule="evenodd" clip-rule="evenodd" d="M7.53088 8.79162C5.49605 11.0328 4.02762 13.733 3.24954 16.6643L0.724106 15.9873C1.61026 12.6489 3.28264 9.57363 5.60008 7.02122L7.53088 8.79162Z" fill="#3E2E26"/>
<path fill-rule="evenodd" clip-rule="evenodd" d="M23.8865 2.78819C18.938 2.13416 13.9337 3.4824 9.97439 6.5363L8.38297 4.45267C12.8922 0.974611 18.5915 -0.560883 24.2273 0.183975L23.8865 2.78819Z" fill="#3E2E26"/>
<path fill-rule="evenodd" clip-rule="evenodd" d="M34.1453 7.5942C32.0023 5.62115 29.4337 4.17372 26.6408 3.36539L27.3642 0.841349C30.545 1.76195 33.4703 3.41041 35.9109 5.6575L34.1453 7.5942Z" fill="#3E2E26"/>
</svg>
